# xmcd
#
# Track frame offsets: 
#        150
#        23624
#        41060
#        53893
#        74316
#        89831
#        106009
#        123154
#        146921
#        162596
#        184124
#        192812
#        201905
#        210060
#        230092
#        244367
#        260292
#        277187
#        302894
#        315151
#        340139
#
# Disc length: 4771 seconds
#
# Revision: 0
# Processed by: cddbd v1.5.2PL0 Copyright (c) Steve Scherf et al.
# Submitted via: ExactAudioCopy v0.99pb3
#
DISCID=3512a115
DTITLE=Tom Waits - Greatest Hits [CD2]
DYEAR=2008
DGENRE=Blues
TTITLE0=Once upon a Town
TTITLE1=Somewhere
TTITLE2=Broken Bicycles
TTITLE3=Christmas Card from a Hooker in Minneapolis
TTITLE4=Muriel
TTITLE5=The Piano Has Been Drinking (Not Me)
TTITLE6=Foreign Affair
TTITLE7=On the Other Side of the World
TTITLE8=Cold Cold Ground
TTITLE9=Downtown
TTITLE10=Frank's Wild Years
TTITLE11=Underground
TTITLE12=Cemetery Polka
TTITLE13=Misery Is the River of the World
TTITLE14=Swordfishtrombone
TTITLE15=Way Down in the Hole
TTITLE16=Sea of Love
TTITLE17=Dead and Lovely
TTITLE18=Crossroads
TTITLE19=Hold On
TTITLE20=Time
EXTD=
EXTT0=
EXTT1=
EXTT2=
EXTT3=
EXTT4=
EXTT5=
EXTT6=
EXTT7=
EXTT8=
EXTT9=
EXTT10=
EXTT11=
EXTT12=
EXTT13=
EXTT14=
EXTT15=
EXTT16=
EXTT17=
EXTT18=
EXTT19=
EXTT20=
PLAYORDER=
